0
SECTION
2
HEADER
9
$INSUNITS
70
4
9
$ACADVER
1
AC1014
9
$HANDSEED
5
FFFF
0
ENDSEC
0
SECTION
2
TABLES
0
TABLE
2
VPORT
5
8
100
AcDbSymbolTable
0
ENDTAB
0
TABLE
2
LTYPE
5
5
100
AcDbSymbolTable
0
LTYPE
5
14
100
AcDbSymbolTableRecord
100
AcDbLinetypeTableRecord
2
BYBLOCK
70
0
0
LTYPE
5
15
100
AcDbSymbolTableRecord
100
AcDbLinetypeTableRecord
2
BYLAYER
70
0
0
ENDTAB
0
TABLE
2
LAYER
5
2
100
AcDbSymbolTable
70
2
0
LAYER
5
50
100
AcDbSymbolTableRecord
100
AcDbLayerTableRecord
2
0
70
0
6
CONTINUOUS
0
ENDTAB
0
TABLE
2
STYLE
5
3
100
AcDbSymbolTable
70
1
0
STYLE
5
11
100
AcDbSymbolTableRecord
100
AcDbTextStyleTableRecord
2
STANDARD
70
0
0
ENDTAB
0
TABLE
2
VIEW
5
6
100
AcDbSymbolTable
70
0
0
ENDTAB
0
TABLE
2
UCS
5
7
100
AcDbSymbolTable
70
0
0
ENDTAB
0
TABLE
2
APPID
5
9
100
AcDbSymbolTable
70
2
0
APPID
5
12
100
AcDbSymbolTableRecord
100
AcDbRegAppTableRecord
2
ACAD
70
0
0
ENDTAB
0
TABLE
2
DIMSTYLE
5
A
100
AcDbSymbolTable
70
1
0
ENDTAB
0
TABLE
2
BLOCK_RECORD
5
1
100
AcDbSymbolTable
70
1
0
BLOCK_RECORD
5
1F
100
AcDbSymbolTableRecord
100
AcDbBlockTableRecord
2
*MODEL_SPACE
0
BLOCK_RECORD
5
1B
100
AcDbSymbolTableRecord
100
AcDbBlockTableRecord
2
*PAPER_SPACE
0
ENDTAB
0
ENDSEC
0
SECTION
2
BLOCKS
0
BLOCK
5
20
100
AcDbEntity
100
AcDbBlockBegin
2
*MODEL_SPACE
0
ENDBLK
5
21
100
AcDbEntity
100
AcDbBlockEnd
0
BLOCK
5
1C
100
AcDbEntity
100
AcDbBlockBegin
2
*PAPER_SPACE
0
ENDBLK
5
1D
100
AcDbEntity
100
AcDbBlockEnd
0
ENDSEC
0
SECTION
2
ENTITIES
0
CIRCLE
5
100
100
AcDbEntity
8
0
100
AcDbCircle
10
78.399999999999977
20
-247.20244467000001
30
0
40
6.0000000000000053
0
CIRCLE
5
101
100
AcDbEntity
8
0
100
AcDbCircle
10
-42.500000000000007
20
-151.30244467
30
0
40
6.7499999999999982
0
CIRCLE
5
102
100
AcDbEntity
8
0
100
AcDbCircle
10
-78.40000000000002
20
-247.20244467000001
30
0
40
6.0000000000000053
0
CIRCLE
5
103
100
AcDbEntity
8
0
100
AcDbCircle
10
42.499999999999972
20
-151.30244467
30
0
40
6.7499999999999982
0
CIRCLE
5
104
100
AcDbEntity
8
0
100
AcDbCircle
10
42.499999999999972
20
-236.30244467
30
0
40
6.7499999999999982
0
CIRCLE
5
105
100
AcDbEntity
8
0
100
AcDbCircle
10
-78.400000000000006
20
-140.40244467000002
30
0
40
5.9999999999999964
0
CIRCLE
5
106
100
AcDbEntity
8
0
100
AcDbCircle
10
-42.500000000000007
20
-236.30244467
30
0
40
6.7499999999999982
0
CIRCLE
5
107
100
AcDbEntity
8
0
100
AcDbCircle
10
78.399999999999977
20
-140.40244467000002
30
0
40
6.0000000000000053
0
CIRCLE
5
108
100
AcDbEntity
8
0
100
AcDbCircle
10
-162.50000000000003
20
-182.80244466999994
30
0
40
2.5000000000000355
0
CIRCLE
5
109
100
AcDbEntity
8
0
100
AcDbCircle
10
-150.00000000000003
20
-248.80244466999997
30
0
40
2.5000000000000178
0
CIRCLE
5
110
100
AcDbEntity
8
0
100
AcDbCircle
10
-137.50000000000003
20
-226.80244466999997
30
0
40
2.5000000000000178
0
CIRCLE
5
111
100
AcDbEntity
8
0
100
AcDbCircle
10
-175.00000000000003
20
-204.80244467
30
0
40
2.5000000000000355
0
CIRCLE
5
112
100
AcDbEntity
8
0
100
AcDbCircle
10
-175.00000000000003
20
-160.80244466999997
30
0
40
2.5000000000000355
0
CIRCLE
5
113
100
AcDbEntity
8
0
100
AcDbCircle
10
-125.00000000000003
20
-160.80244466999997
30
0
40
2.5000000000000178
0
CIRCLE
5
114
100
AcDbEntity
8
0
100
AcDbCircle
10
-162.50000000000003
20
-138.80244466999997
30
0
40
2.5000000000000355
0
CIRCLE
5
115
100
AcDbEntity
8
0
100
AcDbCircle
10
-150.00000000000003
20
-138.80244466999997
30
0
40
2.5000000000000178
0
CIRCLE
5
116
100
AcDbEntity
8
0
100
AcDbCircle
10
-137.50000000000003
20
-160.80244466999997
30
0
40
2.5000000000000178
0
CIRCLE
5
117
100
AcDbEntity
8
0
100
AcDbCircle
10
-175.00000000000003
20
-182.80244466999994
30
0
40
2.5000000000000355
0
CIRCLE
5
118
100
AcDbEntity
8
0
100
AcDbCircle
10
-175.00000000000003
20
-226.80244466999997
30
0
40
2.5000000000000355
0
CIRCLE
5
119
100
AcDbEntity
8
0
100
AcDbCircle
10
-125.00000000000003
20
-226.80244466999997
30
0
40
2.5000000000000178
0
CIRCLE
5
120
100
AcDbEntity
8
0
100
AcDbCircle
10
-162.50000000000003
20
-248.80244466999997
30
0
40
2.5000000000000355
0
CIRCLE
5
121
100
AcDbEntity
8
0
100
AcDbCircle
10
-162.50000000000003
20
-204.80244467
30
0
40
2.5000000000000355
0
CIRCLE
5
122
100
AcDbEntity
8
0
100
AcDbCircle
10
-137.50000000000003
20
-182.80244466999994
30
0
40
2.5000000000000178
0
CIRCLE
5
123
100
AcDbEntity
8
0
100
AcDbCircle
10
-137.50000000000003
20
-248.80244466999997
30
0
40
2.5000000000000178
0
CIRCLE
5
124
100
AcDbEntity
8
0
100
AcDbCircle
10
-150.00000000000003
20
-226.80244466999997
30
0
40
2.5000000000000178
0
CIRCLE
5
125
100
AcDbEntity
8
0
100
AcDbCircle
10
-125.00000000000003
20
-204.80244467
30
0
40
2.5000000000000178
0
CIRCLE
5
126
100
AcDbEntity
8
0
100
AcDbCircle
10
-162.50000000000003
20
-160.80244466999997
30
0
40
2.5000000000000355
0
CIRCLE
5
127
100
AcDbEntity
8
0
100
AcDbCircle
10
-125.00000000000003
20
-138.80244466999997
30
0
40
2.5000000000000178
0
CIRCLE
5
128
100
AcDbEntity
8
0
100
AcDbCircle
10
-175.00000000000003
20
-138.80244466999997
30
0
40
2.5000000000000355
0
CIRCLE
5
129
100
AcDbEntity
8
0
100
AcDbCircle
10
-137.50000000000003
20
-138.80244466999997
30
0
40
2.5000000000000178
0
CIRCLE
5
130
100
AcDbEntity
8
0
100
AcDbCircle
10
-150.00000000000003
20
-160.80244466999997
30
0
40
2.5000000000000178
0
CIRCLE
5
131
100
AcDbEntity
8
0
100
AcDbCircle
10
-125.00000000000003
20
-182.80244466999994
30
0
40
2.5000000000000178
0
CIRCLE
5
132
100
AcDbEntity
8
0
100
AcDbCircle
10
-162.50000000000003
20
-226.80244466999997
30
0
40
2.5000000000000355
0
CIRCLE
5
133
100
AcDbEntity
8
0
100
AcDbCircle
10
-125.00000000000003
20
-248.80244466999997
30
0
40
2.5000000000000178
0
CIRCLE
5
134
100
AcDbEntity
8
0
100
AcDbCircle
10
-137.50000000000003
20
-204.80244467
30
0
40
2.5000000000000178
0
CIRCLE
5
135
100
AcDbEntity
8
0
100
AcDbCircle
10
-175.00000000000003
20
-248.80244466999997
30
0
40
2.5000000000000355
0
CIRCLE
5
136
100
AcDbEntity
8
0
100
AcDbCircle
10
162.50000000000003
20
-182.80244466999994
30
0
40
2.5000000000000355
0
CIRCLE
5
137
100
AcDbEntity
8
0
100
AcDbCircle
10
150.00000000000003
20
-248.80244466999997
30
0
40
2.5000000000000178
0
CIRCLE
5
138
100
AcDbEntity
8
0
100
AcDbCircle
10
137.50000000000003
20
-226.80244466999997
30
0
40
2.5000000000000178
0
CIRCLE
5
139
100
AcDbEntity
8
0
100
AcDbCircle
10
175.00000000000003
20
-204.80244467
30
0
40
2.5000000000000355
0
CIRCLE
5
140
100
AcDbEntity
8
0
100
AcDbCircle
10
175.00000000000003
20
-160.80244466999997
30
0
40
2.5000000000000355
0
CIRCLE
5
141
100
AcDbEntity
8
0
100
AcDbCircle
10
175.00000000000003
20
-182.80244466999994
30
0
40
2.5000000000000355
0
CIRCLE
5
142
100
AcDbEntity
8
0
100
AcDbCircle
10
175.00000000000003
20
-226.80244466999997
30
0
40
2.5000000000000355
0
CIRCLE
5
143
100
AcDbEntity
8
0
100
AcDbCircle
10
125.00000000000003
20
-226.80244466999997
30
0
40
2.5000000000000178
0
CIRCLE
5
144
100
AcDbEntity
8
0
100
AcDbCircle
10
162.50000000000003
20
-248.80244466999997
30
0
40
2.5000000000000355
0
CIRCLE
5
145
100
AcDbEntity
8
0
100
AcDbCircle
10
162.50000000000003
20
-204.80244467
30
0
40
2.5000000000000355
0
CIRCLE
5
146
100
AcDbEntity
8
0
100
AcDbCircle
10
137.50000000000003
20
-182.80244466999994
30
0
40
2.5000000000000178
0
CIRCLE
5
147
100
AcDbEntity
8
0
100
AcDbCircle
10
137.50000000000003
20
-248.80244466999997
30
0
40
2.5000000000000178
0
CIRCLE
5
148
100
AcDbEntity
8
0
100
AcDbCircle
10
150.00000000000003
20
-226.80244466999997
30
0
40
2.5000000000000178
0
CIRCLE
5
149
100
AcDbEntity
8
0
100
AcDbCircle
10
125.00000000000003
20
-204.80244467
30
0
40
2.5000000000000178
0
CIRCLE
5
150
100
AcDbEntity
8
0
100
AcDbCircle
10
175.00000000000003
20
-138.80244466999997
30
0
40
2.5000000000000355
0
CIRCLE
5
151
100
AcDbEntity
8
0
100
AcDbCircle
10
125.00000000000003
20
-182.80244466999994
30
0
40
2.5000000000000178
0
CIRCLE
5
152
100
AcDbEntity
8
0
100
AcDbCircle
10
162.50000000000003
20
-226.80244466999997
30
0
40
2.5000000000000355
0
CIRCLE
5
153
100
AcDbEntity
8
0
100
AcDbCircle
10
125.00000000000003
20
-248.80244466999997
30
0
40
2.5000000000000178
0
CIRCLE
5
154
100
AcDbEntity
8
0
100
AcDbCircle
10
137.50000000000003
20
-204.80244467
30
0
40
2.5000000000000178
0
CIRCLE
5
155
100
AcDbEntity
8
0
100
AcDbCircle
10
175.00000000000003
20
-248.80244466999997
30
0
40
2.5000000000000355
0
CIRCLE
5
156
100
AcDbEntity
8
0
100
AcDbCircle
10
149.99999999999997
20
-193.80244466999997
30
0
40
2.5
0
CIRCLE
5
157
100
AcDbEntity
8
0
100
AcDbCircle
10
-150
20
-193.80244466999997
30
0
40
2.5
0
CIRCLE
5
158
100
AcDbEntity
8
0
100
AcDbCircle
10
-200
20
-222.55244466999989
30
0
40
2.5
0
CIRCLE
5
159
100
AcDbEntity
8
0
100
AcDbCircle
10
200
20
-222.55244466999997
30
0
40
2.5
0
CIRCLE
5
160
100
AcDbEntity
8
0
100
AcDbCircle
10
200
20
-162.55244466999997
30
0
40
2.5
0
CIRCLE
5
161
100
AcDbEntity
8
0
100
AcDbCircle
10
-200
20
-162.55244466999989
30
0
40
2.5
0
CIRCLE
5
162
100
AcDbEntity
8
0
100
AcDbCircle
10
-200
20
-252.55244466999994
30
0
40
2.5
0
CIRCLE
5
163
100
AcDbEntity
8
0
100
AcDbCircle
10
200
20
-252.55244466999997
30
0
40
2.5
0
CIRCLE
5
164
100
AcDbEntity
8
0
100
AcDbCircle
10
200
20
-132.55244466999997
30
0
40
2.5
0
CIRCLE
5
165
100
AcDbEntity
8
0
100
AcDbCircle
10
-200
20
-132.55244466999994
30
0
40
2.5
0
LWPOLYLINE
5
166
100
AcDbEntity
8
0
100
AcDbPolyline
90
8
70
1
43
0.0
10
-210
20
-118.80244466999994
42
-0.41421356237309404
10
-205
20
-113.80244466999994
10
205
20
-113.80244466999996
42
-0.41421356237309404
10
210
20
-118.80244466999994
10
210.00000000000003
20
-268.80244467
42
-0.41421356237309298
10
205
20
-273.80244467
10
-205
20
-273.80244467
42
-0.41421356237309298
10
-210
20
-268.80244467
0
LINE
5
167
100
AcDbEntity
8
0
100
AcDbLine
10
101.99999999999996
20
-238.80244466999989
30
0
11
101.99999999999996
21
-148.80244466999994
31
0
0
LINE
5
168
100
AcDbEntity
8
0
100
AcDbLine
10
99.999999999999972
20
-238.80244466999997
30
0
11
99.999999999999972
21
-148.80244467
31
0
0
LINE
5
169
100
AcDbEntity
8
0
100
AcDbLine
10
-102
20
-238.80244466999989
30
0
11
-102
21
-148.80244466999994
31
0
0
LINE
5
170
100
AcDbEntity
8
0
100
AcDbLine
10
-100
20
-148.80244467000003
30
0
11
-100
21
-238.80244466999997
31
0
0
LINE
5
171
100
AcDbEntity
8
0
100
AcDbLine
10
69.999999999999986
20
-270.80244466999994
30
0
11
-70
21
-270.80244466999994
31
0
0
LINE
5
172
100
AcDbEntity
8
0
100
AcDbLine
10
-70.000000000000014
20
-268.80244467
30
0
11
69.999999999999972
21
-268.80244467
31
0
0
LINE
5
173
100
AcDbEntity
8
0
100
AcDbLine
10
69.999999999999986
20
-116.80244467000003
30
0
11
-70.000000000000014
21
-116.80244467000003
31
0
0
LINE
5
174
100
AcDbEntity
8
0
100
AcDbLine
10
69.999999999999972
20
-118.80244467000003
30
0
11
-70.000000000000014
21
-118.80244467000003
31
0
0
LWPOLYLINE
5
175
100
AcDbEntity
8
0
100
AcDbPolyline
90
8
70
1
43
0.0
10
125.00000000000003
20
-163.30244467
10
162.50000000000003
20
-163.30244467
42
0.41421356237308665
10
165.00000000000006
20
-160.80244466999997
10
165.00000000000006
20
-138.80244466999997
42
0.41421356237308665
10
162.50000000000003
20
-136.30244466999994
10
125.00000000000003
20
-136.30244466999994
42
0.4142135623730992
10
122.50000000000001
20
-138.80244466999997
10
122.50000000000001
20
-160.80244466999997
42
0.41421356237309087
0
ENDSEC
0
SECTION
2
OBJECTS
0
DICTIONARY
5
C
100
AcDbDictionary
3
ACAD_GROUP
350
D
3
ACAD_MLINESTYLE
350
17
0
DICTIONARY
5
D
100
AcDbDictionary
0
DICTIONARY
5
1A
330
C
100
AcDbDictionary
0
DICTIONARY
5
17
100
AcDbDictionary
0
ENDSEC
0
EOF
